<?xml version="1.0" encoding="utf-8"?>
<!-- Generator: Adobe Illustrator 15.1.0, SVG Export Plug-In . SVG Version: 6.00 Build 0)  -->
<!DOCTYPE svg PUBLIC "-//W3C//DTD SVG 1.1//EN" "http://www.w3.org/Graphics/SVG/1.1/DTD/svg11.dtd">
<svg version="1.1" id="Capa_1" xmlns="http://www.w3.org/2000/svg" xmlns:xlink="http://www.w3.org/1999/xlink" x="0px" y="0px"
	 width="50px" height="50px" viewBox="23.875 23.875 50 50" enable-background="new 23.875 23.875 50 50" xml:space="preserve">
<g>
	<path fill="#094FCC" d="M48.875,23.875c-13.808,0-25,11.193-25,25c0,13.808,11.193,24.999,25,24.999c13.806,0,25-11.191,25-24.999
		C73.875,35.068,62.682,23.875,48.875,23.875z M58.412,36.606l-3.457,0.002c-2.713,0-3.236,1.288-3.236,3.178v4.169h6.467
		l-0.004,6.53h-6.463v16.756h-6.743V50.485h-5.638v-6.53h5.638V39.14c0-5.588,3.414-8.631,8.397-8.631l5.039,0.008V36.606
		L58.412,36.606z"/>
</g>
</svg>
