<?xml version="1.0" encoding="utf-8"?>
<!-- Generator: Adobe Illustrator 15.1.0, SVG Export Plug-In . SVG Version: 6.00 Build 0)  -->
<!DOCTYPE svg PUBLIC "-//W3C//DTD SVG 1.1//EN" "http://www.w3.org/Graphics/SVG/1.1/DTD/svg11.dtd">
<svg version="1.1" id="Capa_1" xmlns="http://www.w3.org/2000/svg" xmlns:xlink="http://www.w3.org/1999/xlink" x="0px" y="0px"
	 width="50px" height="50px" viewBox="23.875 23.875 50 50" enable-background="new 23.875 23.875 50 50" xml:space="preserve">
<g>
	<g>
		<path fill="#F04D23" d="M49.823,41.098c0-3.466-2.066-8.855-6.049-8.855c-1.252,0-2.594,0.625-3.364,1.588
			c-0.817,1.012-1.055,2.308-1.055,3.562c0,3.223,1.871,8.563,6.003,8.563c1.2,0,2.492-0.575,3.264-1.345
			C49.728,43.501,49.823,41.965,49.823,41.098z"/>
		<path fill="#F04D23" d="M47.229,53.754c-0.382-0.048-0.623-0.048-1.103-0.048c-0.433,0-3.027,0.095-5.043,0.773
			c-1.056,0.382-4.128,1.538-4.128,4.954c0,3.419,3.313,5.875,8.451,5.875c4.611,0,7.061-2.219,7.061-5.198
			C52.467,57.648,50.882,56.354,47.229,53.754z"/>
		<path fill="#F04D23" d="M48.875,23.875c-13.807,0-25,11.193-25,25c0,13.808,11.193,25,25,25c13.808,0,25-11.192,25-25
			C73.875,35.068,62.683,23.875,48.875,23.875z M43.051,67.325c-6.964,0-10.324-3.318-10.324-6.882c0-1.731,0.863-4.185,3.697-5.87
			c2.976-1.829,7.012-2.067,9.174-2.217c-0.675-0.865-1.44-1.779-1.44-3.271c0-0.817,0.241-1.299,0.478-1.877
			c-0.529,0.049-1.055,0.096-1.536,0.096c-5.088,0-7.97-3.805-7.97-7.558c0-2.21,1.007-4.667,3.071-6.448
			c2.739-2.262,6.481-2.875,9.076-2.875h9.462l-3.123,1.962h-2.975c1.104,0.913,3.405,2.838,3.405,6.498
			c0,3.559-2.014,5.248-4.03,6.834c-0.625,0.624-1.346,1.298-1.346,2.358c0,1.056,0.722,1.633,1.248,2.069l1.73,1.345
			c2.114,1.779,4.035,3.416,4.034,6.74C55.683,62.756,51.31,67.325,43.051,67.325z M63.775,48.287v4.841h-2.376v-4.841h-4.806
			v-2.402h4.806v-4.812h2.376v4.812h4.828v2.402H63.775z"/>
	</g>
</g>
</svg>
