<?xml version="1.0" encoding="utf-8"?>
<!-- Generator: Adobe Illustrator 15.1.0, SVG Export Plug-In . SVG Version: 6.00 Build 0)  -->
<!DOCTYPE svg PUBLIC "-//W3C//DTD SVG 1.1//EN" "http://www.w3.org/Graphics/SVG/1.1/DTD/svg11.dtd">
<svg version="1.1" id="Layer_1" xmlns="http://www.w3.org/2000/svg" xmlns:xlink="http://www.w3.org/1999/xlink" x="0px" y="0px"
	 width="62px" height="62px" viewBox="275 387.354 62 62" enable-background="new 275 387.354 62 62" xml:space="preserve">
<title>HTML5 Logo</title>
<g>
	<polygon fill="#008FA1" points="288.004,438.315 284,393.402 328,393.402 323.992,438.309 305.973,443.304 	"/>
	<polygon fill="#00BED5" points="306,439.485 320.56,435.449 323.985,397.074 306,397.074 	"/>
	<polygon fill="#EBEBEB" points="306,402.583 305.981,402.583 292.188,402.583 292.32,404.062 293.963,422.482 293.963,422.482 
		294.691,430.644 305.975,433.775 306,433.769 306,428.038 305.976,428.045 299.841,426.388 299.449,421.994 299.449,421.994 
		298.711,413.732 298.208,408.092 306,408.092 	"/>
	<polygon fill="#FFFFFF" points="305.981,413.732 305.981,419.24 312.764,419.24 312.125,426.385 305.981,428.043 305.981,433.773 
		317.273,430.644 317.355,429.714 318.65,415.212 318.785,413.732 317.301,413.732 	"/>
	<polygon fill="#FFFFFF" points="305.981,402.583 305.981,406.004 305.981,408.078 305.981,408.092 319.269,408.092 
		319.269,408.092 319.286,408.092 319.396,406.854 319.647,404.062 319.779,402.583 	"/>
</g>
</svg>
