<?xml version="1.0" encoding="utf-8"?>
<!-- Generator: Adobe Illustrator 15.1.0, SVG Export Plug-In . SVG Version: 6.00 Build 0)  -->
<!DOCTYPE svg PUBLIC "-//W3C//DTD SVG 1.1//EN" "http://www.w3.org/Graphics/SVG/1.1/DTD/svg11.dtd">
<svg version="1.1" id="Capa_1" xmlns="http://www.w3.org/2000/svg" xmlns:xlink="http://www.w3.org/1999/xlink" x="0px" y="0px"
	 width="50px" height="50px" viewBox="23.875 23.875 50 50" enable-background="new 23.875 23.875 50 50" xml:space="preserve">
<g>
	<path fill="#44ABE0" d="M48.875,23.875c-13.807,0-25,11.193-25,25c0,13.808,11.193,25,25,25c13.808,0,25-11.192,25-25
		C73.875,35.068,62.683,23.875,48.875,23.875z M63.992,42.208c0.013,0.295,0.019,0.591,0.019,0.888
		c0,10.679-8.127,21.725-21.726,21.725c-4.157,0-8.205-1.187-11.705-3.432c-0.073-0.046-0.103-0.137-0.074-0.218
		c0.029-0.081,0.111-0.131,0.196-0.121c0.587,0.069,1.188,0.104,1.784,0.104c3.234,0,6.296-1,8.886-2.897
		c-3.104-0.262-5.772-2.362-6.732-5.359c-0.02-0.062-0.005-0.13,0.038-0.179c0.043-0.05,0.11-0.071,0.173-0.06
		c0.86,0.163,1.735,0.174,2.578,0.037c-3.202-0.995-5.452-3.994-5.452-7.408l0.001-0.1c0.002-0.065,0.037-0.125,0.093-0.156
		C32.126,45,32.196,45,32.252,45.031c0.834,0.464,1.759,0.761,2.707,0.875c-1.84-1.466-2.92-3.689-2.92-6.067
		c0-1.372,0.363-2.72,1.051-3.899c0.031-0.053,0.085-0.086,0.145-0.091c0.061-0.006,0.12,0.021,0.158,0.067
		c3.766,4.619,9.305,7.463,15.228,7.829c-0.099-0.497-0.149-1.01-0.149-1.527c0-4.277,3.479-7.755,7.756-7.755
		c2.103,0,4.134,0.864,5.59,2.374c1.642-0.334,3.205-0.938,4.649-1.794c0.066-0.04,0.149-0.033,0.21,0.014
		c0.06,0.048,0.084,0.128,0.061,0.202c-0.489,1.531-1.444,2.866-2.727,3.831c1.208-0.21,2.38-0.565,3.494-1.06
		c0.075-0.034,0.163-0.013,0.217,0.05c0.054,0.063,0.059,0.154,0.013,0.223C66.719,39.821,65.46,41.135,63.992,42.208z"/>
</g>
</svg>
